<mxfile host="app.diagrams.net" modified="2023-09-21T12:38:12.778Z" agent="Mozilla/5.0 (Macintosh; Intel Mac OS X 10_15_7) AppleWebKit/537.36 (KHTML, like Gecko) Chrome/116.0.0.0 Safari/537.36" version="21.8.0" etag="duIeugE2JLu1UNW5Idlx" type="github">
  <diagram name="Page-1" id="nAXAQw0CmVDSY5VAO-7X">
    <mxGraphModel>
      <root>
        <mxCell id="0" />
        <mxCell id="1" parent="0" />
      </root>
    </mxGraphModel>
  </diagram>
</mxfile>
